<svg xmlns="http://www.w3.org/2000/svg" width="690" height="156" viewBox="0 0 690 156"><path d="M609.228 63.066l-43.299.026c-.054 1.826.128 9.62 5.496 14.401 3.988 3.797 8.403 5.608 13.963 5.637 0 0 9.417-.029 15.042-6.975l7.585 3.731c-4.679 7.394-15.158 11.478-23.098 11.478h-.093c-8.103 0-14.982-2.873-20.302-8.53-5.355-5.665-7.346-12.95-7.346-21.546l.025-.108c0-8.153 2.476-15.11 7.417-20.559 4.899-5.45 11.26-8.249 18.728-8.249-.001 0 26.879-2.039 25.882 30.694m-25.387-22.335c-4.119.018-7.911 1.303-10.937 3.826 0 0-4.891 3.865-5.946 11.004h32.975c-1.183-15.731-16.092-14.83-16.092-14.83M325.892 63.078l-43.326.033c-.024 1.83.157 9.603 5.492 14.383 3.989 3.805 8.426 5.615 13.966 5.633 0 0 9.441-.02 15.074-6.972l7.558 3.75c-4.682 7.411-15.134 11.473-23.085 11.473h-.094c-8.094 0-14.978-2.868-20.31-8.535-5.351-5.673-7.335-12.924-7.335-21.548l.026-.096c0-8.171 2.45-15.11 7.399-20.562 4.92-5.467 11.289-8.266 18.728-8.266 0 .001 26.878-2.038 25.907 30.707m-25.395-22.329c-4.131 0-7.905 1.285-10.931 3.815 0 0-4.89 3.869-5.949 11.014h32.989c-1.191-15.745-16.109-14.829-16.109-14.829M552.935 90.156c-5.914 1.547-10.526 1.39-10.526 1.39-3.825 0-7.152-1.129-9.799-3.4-4.355-3.432-4.083-9.53-4.083-9.53v-37.51h-11.619v-7.501h11.619V15.656h8.552v17.948h13.2v7.502h-13.2v30.748s.064 4.739.277 6.235c.207 1.517 1.31 5.379 6.451 5.054 1.647-.097 5.283-.57 7.454-.949l1.674 7.962zM134.092 87.416c-5.129-4.751-4.698-10.971-4.698-10.971.023-3.188.749-6.027 2.263-8.559 2.015-3.734 6.577-6.5 6.577-6.5 5.5-3.417 15.865-5.357 25.474-5.979v-5.555c-.006-3.456-.916-5.729-2.559-7.258-2.883-2.618-8.06-2.401-8.06-2.401-4.659 0-8.869 1.358-15.595 5.009l-3.373-6.4c6.305-4.225 14.061-6.249 19.914-6.249 8.62 0 12.973 3.934 12.973 3.934 3.525 2.639 5.327 6.62 5.327 11.459v42.546h-8.662v-4.267c-19.86 11.153-29.581 1.191-29.581 1.191m3.867-10.971s.243 7.549 9.299 7.549c4.346 0 11.416-1.769 16.44-5.904V62.421c-28.289 1.204-25.739 14.024-25.739 14.024M250.76 50.294c1.109.847 2.557 1.442 5.504 8.188l14.001 32.02h-9.942l-13.249-30.173c-1.196-2.621-2.527-5.202-4.778-6.122 0 0-1.481-.817-5.606-.817h-21.57v37.103h-9.161V6.105h29.661c9.018 0 16.082 1.954 21.102 6.047 4.958 4.046 7.199 10.568 7.199 17.366.001.001 1.005 15.538-13.161 20.776m3.802-20.577c-.031-4.718-1.647-8.983-5.051-11.575-3.36-2.561-7.877-3.929-15.155-3.929h-19.237v31.081h19.468c7.226 0 11.71-1.365 15.018-3.913 3.334-2.563 4.926-6.844 4.957-11.664M377.708 36.068V6.197h8.603v84.295h-8.603v-3.035c-7.37 4.478-14.669 4.097-14.669 4.097-13.277-.047-20.364-8.572-20.364-8.572s-8.303-7.144-8.303-21c-.033-8.401 2.74-15.456 8.175-21.005 5.413-5.598 12.359-8.43 20.491-8.43 7.71-.004 14.67 3.521 14.67 3.521m-14.38 4.914c-5.923.008-10.619 1.92-14.404 5.797-3.768 3.872-5.634 8.719-5.646 14.861.013 6.222 2.021 11.26 6.066 15.354 4.047 4.075 9 6.09 15.182 6.115 0 0 6.436.363 13.184-4.287V45.405c-.002 0-6.369-4.423-14.382-4.423M88.35 6.197v76.198h34.171v8.097H79.177V6.197zM396.379 62.051c0-8.313 2.796-15.423 8.309-21.026 5.478-5.625 12.49-8.481 20.608-8.481 0 0 11.916-.742 20.664 8.481 5.485 5.604 8.238 12.713 8.238 21.026v.098c0 8.271-2.769 15.374-8.238 20.961-5.465 5.587-12.42 8.438-20.562 8.438H425.293c-8.118 0-15.135-2.852-20.609-8.438-5.509-5.587-8.308-12.671-8.308-20.944v-.113l.003-.002zm14.66-15.092c-3.834 4.021-5.753 8.957-5.775 15.145.022 6.128 1.941 11.035 5.775 15.053 3.864 3.979 8.518 5.929 14.293 5.952 5.764-.023 10.374-1.96 14.227-5.952 3.817-4.019 5.712-8.925 5.725-15.053-.014-6.102-1.907-11.018-5.752-15.086-3.878-4.057-8.486-6.027-14.196-6.036-5.78.008-10.433 1.971-14.297 5.977M496.179 89.059c-2.914 1.681-6.552 2.472-10.813 2.472-10.121.077-15.357-6.051-15.357-6.051-4.129-4.069-6.139-9.802-6.139-16.934V33.604h8.577v34.781s-.341 6.812 3.694 10.832c2.523 2.595 5.626 3.851 9.721 3.869 5.887 0 8.842-2.354 8.842-2.354 2.319-1.515 4.806-4.217 7.333-8.168v-38.96h8.559v56.888h-8.559v-6.547s-2.116 2.821-5.858 5.114"/><g fill="#414142"><path d="M253.196 122.305c-1.017 1.607-2.048 3.563-3.088 5.859-1.043 2.297-1.864 4.49-2.458 6.578 1.488-2.691 3.308-5.252 5.453-7.697 2.862-3.28 5.398-4.92 7.607-4.92 1.789 0 2.682 1.283 2.682 3.85 0 3.693-1.162 7.902-3.49 12.611-1.551 3.222-3.577 6.025-6.082 8.412-2.982 2.802-6.025 4.204-9.125 4.204-2.386 0-3.579-.444-3.579-1.343 0-.355.183-.534.537-.534.181 0 .613.101 1.299.309.688.213 1.268.313 1.746.313 2.685 0 5.337-1.514 7.962-4.564 1.969-2.322 3.581-5.035 4.831-8.137 1.131-2.685 1.697-5.641 1.697-8.862 0-1.967-.443-2.951-1.338-2.951-1.969 0-4.595 2.718-7.872 8.145-3.103 5.067-4.656 8.855-4.656 11.358 0 .663.226 1.164.673 1.524.446.36.669.654.669.89 0 .238-.146.365-.444.365-2.208 0-3.31-1.615-3.31-4.836 0-2.268.552-5.202 1.654-8.808 1.103-3.61 2.79-7.741 5.055-12.392 1.908-3.758 5.22-9.395 9.932-16.905 7.274-11.638 13.207-17.45 17.801-17.45 2.684 0 4.026 1.223 4.026 3.669 0 4.297-3.759 10.287-11.272 17.985-4.835 4.884-10.473 9.329-16.91 13.327zm26.476-29.707c0-1.253-.506-1.909-1.519-1.968-1.552 0-3.969 1.313-7.245 3.937-5.792 4.59-10.766 11.631-14.941 21.113-.655 1.612-1.132 2.861-1.433 3.757 4.294-2.501 9.247-6.528 14.854-12.077 6.737-6.496 10.165-11.422 10.284-14.762zM285.396 131.789a601.712 601.712 0 0 1-5.635 7.243c-1.789 2.271-3.279 3.997-4.469 5.192-1.671 1.605-3.253 2.653-4.744 3.127-1.496.479-2.747.463-3.759-.039-1.017-.512-1.746-1.495-2.193-2.957-.447-1.461-.462-3.357-.046-5.683.181-1.132.505-1.908.982-2.323.478-.419.986-.628 1.521-.628.539 0 1.017.166 1.435.491.418.331.684.705.805 1.119-.954 2.446-1.42 4.413-1.387 5.905.028 1.491.448 2.389 1.254 2.687.806.297 1.926-.043 3.355-1.027 1.434-.99 3.041-2.729 4.832-5.237.356-.479 1.029-1.389 2.012-2.729.987-1.343 2.341-2.967 4.073-4.878a70.165 70.165 0 0 1 1.7-1.967c.536-.598 1.4-1.55 2.597-2.862.413-.417.893-.627 1.428-.627 1.372 0 2.058.687 2.058 2.06 0 .297-.118.656-.36 1.072-3.339 5.488-5.009 9.838-5.009 13.059 0 2.271 1.075 3.406 3.221 3.406 1.67 0 3.458-.865 5.368-2.598 1.311-1.132 2.715-2.742 4.207-4.832 1.252-1.728 1.969-2.596 2.149-2.596.177 0 .269.182.269.537 0 .416-.18.927-.54 1.519-4.056 6.745-8.258 10.111-12.612 10.111-3.399 0-5.1-2.144-5.1-6.442-.004-3.75.862-7.123 2.588-10.103z"/><path d="M333.439 137.959c0 .119-.061.238-.18.36-.893 1.313-2.225 2.459-3.982 3.441-1.758.987-3.445 1.479-5.056 1.479a7.02 7.02 0 0 1-3.485-.898c-2.801 4.118-5.725 6.175-8.769 6.175-2.146 0-3.221-1.165-3.221-3.484 0-2.747 1.165-5.938 3.488-9.574a71.13 71.13 0 0 0-5.368 1.339 132.198 132.198 0 0 0-5.007 1.606c-.36.839-.717 1.703-1.074 2.597-.775 2.684-1.508 4.49-2.192 5.413-.688.924-1.447 1.387-2.283 1.387-.417 0-.594-.508-.534-1.525 0-.294.03-.502.089-.621 1.611-2.804 3.338-6.891 5.188-12.257a52.71 52.71 0 0 1 .445-1.657c.182-.627.417-1.383.718-2.28.299-.419.791-.817 1.476-1.207.685-.39 1.327-.584 1.923-.584.416 0 .595.177.538.533 0 .302-.477 1.495-1.431 3.585a208.967 208.967 0 0 1-2.234 5.185 500.462 500.462 0 0 1 7.513-2.23c.657-.179 1.399-.389 2.235-.63a6.985 6.985 0 0 0 1.073-.268l.092-.089a6.467 6.467 0 0 1-.267-1.882c0-2.029.745-3.994 2.233-5.899 1.496-1.912 3.313-2.868 5.457-2.868 1.432 0 2.598.775 3.491 2.326a8.559 8.559 0 0 1 .982 4.024c0 3.048-1.28 6.889-3.847 11.541.895.535 1.94.806 3.133.806 2.026 0 3.935-.739 5.724-2.237 1.791-1.488 2.625-2.235 2.503-2.235.416-.002.629.21.629.628zm-13.958 3.489c-2.03-1.249-3.579-2.683-4.651-4.293-1.848 3.519-2.774 6.057-2.774 7.606 0 1.131.477 1.696 1.433 1.696.833 0 1.964-.656 3.396-1.97 1.254-1.069 2.117-2.082 2.596-3.039zm3.043-9.93c0-1.19-.207-2.445-.628-3.757-.656-1.791-1.462-2.689-2.414-2.689-1.43 0-2.534.777-3.311 2.331a7.806 7.806 0 0 0-.893 4.026c1.016-1.02 1.997-1.525 2.951-1.525.955 0 1.642.274 2.057.805v.449c.059.179.088.298.088.356 0 .179-.299.271-.891.271-1.135 0-2.33 1.076-3.579 3.218.834 2.147 2.266 3.911 4.296 5.282 1.549-3.58 2.324-6.496 2.324-8.767z"/><path d="M368.328 107.359c-.834 1.136-2.295 2.122-4.383 2.957-2.089.836-5.276 1.402-9.574 1.696-2.444.121-4.741.972-6.888 2.551-2.149 1.58-4.265 4.164-6.352 7.743a327.449 327.449 0 0 0-2.46 4.247 51.491 51.491 0 0 0-1.567 2.952 30.917 30.917 0 0 0-1.071 2.463 28.02 28.02 0 0 0-.896 2.775c1.491-2.689 3.309-5.25 5.458-7.696 2.86-3.279 5.397-4.917 7.602-4.917 1.788 0 2.684 1.281 2.684 3.847 0 3.694-1.159 7.901-3.482 12.611-1.558 3.221-3.583 6.025-6.084 8.411-2.988 2.802-6.029 4.208-9.128 4.208-2.387 0-3.581-.448-3.581-1.347 0-.352.18-.534.536-.534.183 0 .61.104 1.299.313.685.209 1.264.31 1.746.31 2.679 0 5.334-1.514 7.961-4.561 1.968-2.323 3.579-5.039 4.833-8.141 1.131-2.685 1.697-5.637 1.697-8.862 0-1.967-.446-2.952-1.34-2.952-1.969 0-4.591 2.719-7.873 8.148-3.101 5.064-4.652 8.854-4.652 11.355 0 .663.225 1.164.674 1.524.447.36.669.658.669.894 0 .234-.147.36-.446.36-2.207 0-3.312-1.614-3.312-4.833 0-2.323.599-5.144 1.791-8.453 1.191-3.31 2.804-6.623 4.83-9.929a57.987 57.987 0 0 1 6.889-9.126c2.565-2.778 5.246-4.79 8.058-6.041a37.908 37.908 0 0 1 4.021-1.433c1.255-.36 2.396-.64 3.449-.851 1.037-.208 1.98-.403 2.811-.58.84-.184 1.586-.418 2.239-.718.894-.359 1.653-.73 2.28-1.118.628-.386 1.115-.606 1.479-.67.356-.063.551.165.578.67.029.509-.135 1.421-.495 2.727zM372.892 131.789a670.502 670.502 0 0 1-5.633 7.243c-1.788 2.271-3.28 3.997-4.475 5.192-1.675 1.605-3.254 2.653-4.743 3.127-1.494.479-2.747.463-3.756-.039-1.019-.512-1.748-1.495-2.193-2.957-.45-1.461-.468-3.357-.044-5.683.176-1.132.506-1.908.987-2.323.471-.419.977-.628 1.515-.628.534 0 1.018.166 1.433.491.417.331.687.705.806 1.119-.954 2.446-1.42 4.413-1.387 5.905.03 1.491.446 2.389 1.254 2.687.799.297 1.92-.043 3.355-1.027 1.431-.99 3.041-2.729 4.83-5.237.361-.479 1.028-1.389 2.015-2.729.985-1.343 2.337-2.967 4.07-4.878.596-.713 1.16-1.369 1.698-1.967s1.404-1.55 2.594-2.862c.416-.417.895-.627 1.433-.627 1.37 0 2.057.687 2.057 2.06 0 .297-.119.656-.356 1.072-3.344 5.488-5.012 9.838-5.012 13.059 0 2.271 1.074 3.406 3.223 3.406 1.666 0 3.455-.865 5.365-2.598 1.311-1.132 2.717-2.742 4.205-4.832 1.257-1.728 1.971-2.596 2.152-2.596.175 0 .263.182.263.537 0 .416-.178.927-.533 1.519-4.057 6.745-8.265 10.111-12.614 10.111-3.402 0-5.1-2.144-5.1-6.442.001-3.75.861-7.123 2.591-10.103z"/><path d="M408.049 137.329c0 .126-.056.301-.178.538-1.488 2.328-3.723 4.472-6.706 6.446-3.165 2.086-6.057 3.126-8.676 3.126-3.767 0-5.641-2.354-5.641-7.063 0-3.106 1.34-6.505 4.026-10.198 2.861-3.94 5.818-5.906 8.854-5.906.601 0 1.119.264 1.566.801.449.539.674 1.105.674 1.7 0 1.854-1.406 4.089-4.2 6.709-2.512 2.329-4.806 3.878-6.895 4.657-.417 1.49-.624 2.739-.624 3.755 0 2.45 1.102 3.669 3.31 3.669 2.085 0 4.438-.863 7.065-2.593 2.268-1.487 4.205-3.193 5.815-5.099.416-.596.837-.898 1.253-.898.235-.001.357.125.357.356zm-8.766-9.484c0-.713-.355-1.071-1.076-1.071-.895 0-2.205 1.374-3.933 4.117-1.492 2.32-2.417 4.142-2.776 5.455 1.559-.653 3.164-1.817 4.834-3.484 1.968-1.912 2.951-3.582 2.951-5.017z"/><path d="M419.233 131.429c.183-.178.363-.479.539-.894.175-.416.369-.869.581-1.344.204-.479.418-.94.627-1.39.205-.446.399-.759.581-.934.416-.422.897-.633 1.43-.633 1.372 0 2.059.689 2.059 2.062 0 .296-.123.656-.36 1.071-3.339 5.492-5.006 9.846-5.006 13.066 0 2.264 1.077 3.396 3.222 3.396 1.665 0 3.454-.862 5.362-2.594 1.316-1.136 2.716-2.739 4.207-4.832 1.258-1.726 1.97-2.589 2.148-2.589.177 0 .267.181.267.534 0 .419-.183.924-.539 1.521-4.051 6.738-8.255 10.109-12.614 10.109-3.396 0-5.097-2.148-5.097-6.442 0-2.386.359-4.619 1.073-6.709a67.108 67.108 0 0 0-9.038 2.953c-.116.479-.268.94-.443 1.386-.182.448-.329.915-.451 1.387-.474 2.801-1.013 4.712-1.606 5.725-.594 1.017-1.281 1.525-2.056 1.525-.539 0-.806-.538-.806-1.609 0-.242.06-.482.176-.712.656-1.56 1.31-3.391 1.971-5.506.66-2.119 1.311-4.607 1.971-7.468.118-.479.238-1.06.359-1.747.118-.686.297-1.5.538-2.46.175-.416.597-.839 1.25-1.252.653-.418 1.252-.628 1.789-.628.416 0 .624.181.624.538 0 .298-.237 1.206-.712 2.727-.479 1.52-1.162 3.714-2.057 6.575.833-.295 1.85-.637 3.04-1.03 1.195-.384 2.594-.818 4.207-1.293.417-.061 1.01-.238 1.791-.536.29-.663.617-1.32.973-1.973zM454.842 122.305c-1.013 1.607-2.051 3.563-3.09 5.859-1.043 2.297-1.861 4.49-2.456 6.578 1.482-2.691 3.304-5.252 5.46-7.697 2.857-3.28 5.391-4.92 7.599-4.92 1.785 0 2.68 1.283 2.68 3.85 0 3.693-1.157 7.902-3.487 12.611-1.552 3.222-3.577 6.025-6.078 8.412-2.983 2.802-6.029 4.204-9.129 4.204-2.387 0-3.581-.444-3.581-1.343 0-.355.183-.534.534-.534.183 0 .615.101 1.297.309.69.213 1.269.313 1.75.313 2.683 0 5.336-1.514 7.959-4.564 1.971-2.322 3.581-5.035 4.836-8.137 1.129-2.685 1.698-5.641 1.698-8.862 0-1.967-.445-2.951-1.34-2.951-1.966 0-4.594 2.718-7.873 8.145-3.103 5.067-4.654 8.855-4.654 11.358 0 .663.223 1.164.674 1.524.442.36.67.654.67.89 0 .238-.147.365-.448.365-2.209 0-3.305-1.615-3.305-4.836 0-2.268.545-5.202 1.648-8.808 1.104-3.61 2.79-7.741 5.059-12.392 1.908-3.758 5.218-9.395 9.934-16.905 7.273-11.638 13.207-17.45 17.801-17.45 2.683 0 4.026 1.223 4.026 3.669 0 4.297-3.763 10.287-11.271 17.985-4.839 4.884-10.479 9.329-16.913 13.327zm26.48-29.707c0-1.253-.507-1.909-1.521-1.968-1.554 0-3.966 1.313-7.246 3.937-5.788 4.59-10.769 11.631-14.943 21.113-.653 1.612-1.135 2.861-1.433 3.757 4.293-2.501 9.244-6.528 14.854-12.077 6.741-6.496 10.167-11.422 10.289-14.762zM533.746 106.379c0 2.862-2.32 5.458-6.978 7.781-3.461 1.792-7.065 2.984-10.823 3.58 4.296 1.017 7.927 2.412 10.91 4.205 4.181 2.567 6.269 5.577 6.269 9.033 0 2.812-1.457 5.881-4.381 9.221 1.724 2.084 2.59 3.605 2.59 4.563 0 .839-.33 1.252-.983 1.252-.301 0-.537-.148-.712-.45-.895-1.609-1.732-2.83-2.512-3.67-3.874 3.581-8.943 6.324-15.206 8.231-5.484 1.609-11.218 2.416-17.174 2.416-4 0-7.791-.775-11.367-2.323-4.657-1.971-6.977-4.68-6.977-8.146 0-3.994 1.909-7.273 5.726-9.837 3.222-2.152 6.943-3.337 11.185-3.577a225.652 225.652 0 0 1 8.319-17.181c.957-1.847 2.505-4.474 4.651-7.875.953-1.309 2.477-1.968 4.565-1.968.836 0 1.252.24 1.252.715 0 .182-.06.359-.182.539-5.604 7.574-10.795 16.162-15.564 25.77 13.415.294 23.409 3.307 29.976 9.035 1.904-2.507 2.859-4.863 2.859-7.068 0-3.756-2.536-6.711-7.604-8.858-3.938-1.613-8.113-2.415-12.527-2.415h-2.054c-.778 0-1.167-.27-1.167-.809 0-1.073.861-1.756 2.598-2.058.949-.114 2.389-.325 4.293-.626 7.218-1.488 12.494-3.781 15.831-6.884 1.375-1.315 2.062-2.449 2.062-3.403 0-2.147-2.775-3.754-8.322-4.829a62.09 62.09 0 0 0-11.63-1.074c-10.739 0-20.755 1.938-30.058 5.815-.304.116-.542.176-.72.176-.475 0-.715-.232-.715-.712 0-.714.405-1.504 1.207-2.369.805-.872 1.565-1.446 2.284-1.75 6.204-2.502 14.105-3.757 23.708-3.757 5.726 0 11.035.535 15.924 1.611 7.628 1.61 11.447 4.177 11.447 7.696zm-9.029 33.28c-3.348-2.8-7.551-5.01-12.625-6.619-4.83-1.488-9.57-2.235-14.223-2.235-.896 0-1.758.031-2.594.091-3.581 7.633-5.368 12.735-5.368 15.3 0 .183.032.421.092.712.057.298.089.538.089.716 0 .775-.33 1.164-.983 1.164-.953 0-1.437-.805-1.437-2.411 0-2.688 1.526-7.731 4.564-15.121-7.934 1.31-11.895 4.979-11.895 11 0 2.744 1.822 4.896 5.46 6.442a22.093 22.093 0 0 0 8.947 1.883c13.236-.009 23.226-3.644 29.973-10.922zM563.988 136.972c0 .303-.181.72-.538 1.255-2.624 4.237-5.103 6.946-7.422 8.145-1.076.534-2.151.802-3.222.802-3.643 0-5.458-2.563-5.458-7.692 0-.838.049-1.729.182-2.684-4.003 7.099-7.547 10.646-10.652 10.646-1.85 0-2.77-1.014-2.77-3.039 0-3.104 1.484-6.852 4.476-11.237 2.973-4.379 5.873-7.046 8.673-8.001 1.013-.416 1.996-.63 2.957-.63 2.145 0 3.688.75 4.646 2.237.185.302.274.509.274.63 0 .054-.209.147-.632.265-.412.124-.712.331-.894.629-1.433 2.326-2.146 5.811-2.146 10.467 0 4.294.929 6.442 2.77 6.442 1.317 0 3.182-1.444 5.594-4.338 2.412-2.896 3.709-4.336 3.89-4.336.182-.003.272.147.272.439zm-13.154-9.392a3.303 3.303 0 0 0-.803-.088c-2.393 0-4.859 1.521-7.429 4.559-3.638 4.42-5.459 8.027-5.459 10.83 0 1.254.42 1.881 1.258 1.881 1.308 0 3.007-1.373 5.096-4.119 2.924-3.7 5.365-8.052 7.337-13.063z"/><path d="M584.292 136.438c0 .241-.181.57-.537.987-2.086 3.039-4.979 5.812-8.672 8.319-2.146 1.369-4.417 2.059-6.802 2.059-4.416 0-6.62-2.356-6.62-7.069 0-2.916 1.627-6.141 4.876-9.662 3.249-3.518 6.309-5.274 9.171-5.274 1.908 0 2.862.742 2.862 2.228 0 .605-.436 1.629-1.297 3.09-.863 1.462-1.565 2.195-2.103 2.195-.237 0-.362-.149-.362-.445 0-.237.105-.628.317-1.169.206-.531.313-.954.313-1.25 0-1.254-.773-1.879-2.322-1.879-2.152 0-4.091 1.404-5.823 4.202-1.607 2.567-2.409 4.983-2.409 7.251 0 3.692 1.613 5.547 4.827 5.547 4.059 0 8.294-2.778 12.708-8.317.594-.716 1.103-1.08 1.516-1.08.243-.003.357.09.357.267zM587.873 146.276c0 1.434-.745 2.152-2.237 2.152-1.552 0-2.32-.719-2.32-2.152 0-1.429.769-2.145 2.32-2.145 1.492.001 2.237.717 2.237 2.145zm21.383-40.791l-.539.801-2.419 3.76c-6.439 10.14-11.086 17.979-13.954 23.532-.363.771-.926 1.966-1.703 3.575-.357.777-.805 1.166-1.335 1.166-.424 0-.625-.209-.625-.628 0-1.013 2.587-6.562 7.782-16.642 4.828-9.362 7.986-15.237 9.485-17.625.05-.117.141-.18.263-.18.356 0 .955.3 1.791.893.832.6 1.254 1.048 1.254 1.348z"/></g><path d="M203.356 121.627s9.239-8.083 16.049-3.402c6.812 4.68 7.791 21.287-16.049 30.228-23.841-8.94-22.867-25.546-16.054-30.228 6.811-4.683 16.054 3.402 16.054 3.402"/></svg>